<mxfile host="app.diagrams.net" agent="Mozilla/5.0 (X11; Ubuntu; Linux x86_64; rv:138.0) Gecko/20100101 Firefox/138.0" version="27.1.0">
  <diagram name="Page-1" id="FqU6THmFBdlk0tJSIgYU">
    <mxGraphModel dx="431" dy="763" grid="1" gridSize="10" guides="1" tooltips="1" connect="1" arrows="1" fold="1" page="1" pageScale="1" pageWidth="850" pageHeight="1100" math="0" shadow="0">
      <root>
        <mxCell id="0" />
        <mxCell id="1" parent="0" />
        <mxCell id="2HjxuxM-zqZ1-7jaqbpz-18" value="" style="rounded=0;whiteSpace=wrap;html=1;dashed=1;fillColor=#f8cecc;strokeColor=#b85450;" vertex="1" parent="1">
          <mxGeometry x="80" y="440" width="480" height="180" as="geometry" />
        </mxCell>
        <mxCell id="2HjxuxM-zqZ1-7jaqbpz-6" style="edgeStyle=orthogonalEdgeStyle;rounded=0;orthogonalLoop=1;jettySize=auto;html=1;exitX=0.5;exitY=1;exitDx=0;exitDy=0;entryX=0.5;entryY=0;entryDx=0;entryDy=0;" edge="1" parent="1" source="2HjxuxM-zqZ1-7jaqbpz-1" target="2HjxuxM-zqZ1-7jaqbpz-2">
          <mxGeometry relative="1" as="geometry" />
        </mxCell>
        <mxCell id="2HjxuxM-zqZ1-7jaqbpz-1" value="&lt;i&gt;socket()&lt;/i&gt;" style="rounded=0;whiteSpace=wrap;html=1;fillColor=#ffe6cc;strokeColor=#d79b00;" vertex="1" parent="1">
          <mxGeometry x="120" y="240" width="120" height="40" as="geometry" />
        </mxCell>
        <mxCell id="2HjxuxM-zqZ1-7jaqbpz-7" style="edgeStyle=orthogonalEdgeStyle;rounded=0;orthogonalLoop=1;jettySize=auto;html=1;exitX=0.5;exitY=1;exitDx=0;exitDy=0;entryX=0.5;entryY=0;entryDx=0;entryDy=0;" edge="1" parent="1" source="2HjxuxM-zqZ1-7jaqbpz-2" target="2HjxuxM-zqZ1-7jaqbpz-3">
          <mxGeometry relative="1" as="geometry" />
        </mxCell>
        <mxCell id="2HjxuxM-zqZ1-7jaqbpz-2" value="&lt;i&gt;bind()&lt;/i&gt;" style="rounded=0;whiteSpace=wrap;html=1;fillColor=#ffe6cc;strokeColor=#d79b00;" vertex="1" parent="1">
          <mxGeometry x="120" y="320" width="120" height="40" as="geometry" />
        </mxCell>
        <mxCell id="2HjxuxM-zqZ1-7jaqbpz-8" style="edgeStyle=orthogonalEdgeStyle;rounded=0;orthogonalLoop=1;jettySize=auto;html=1;exitX=0.5;exitY=1;exitDx=0;exitDy=0;entryX=0.5;entryY=0;entryDx=0;entryDy=0;" edge="1" parent="1" source="2HjxuxM-zqZ1-7jaqbpz-3" target="2HjxuxM-zqZ1-7jaqbpz-4">
          <mxGeometry relative="1" as="geometry" />
        </mxCell>
        <mxCell id="2HjxuxM-zqZ1-7jaqbpz-3" value="&lt;i&gt;recvfrom()&lt;/i&gt;" style="rounded=0;whiteSpace=wrap;html=1;fillColor=#ffe6cc;strokeColor=#d79b00;" vertex="1" parent="1">
          <mxGeometry x="120" y="480" width="120" height="40" as="geometry" />
        </mxCell>
        <mxCell id="2HjxuxM-zqZ1-7jaqbpz-9" style="edgeStyle=orthogonalEdgeStyle;rounded=0;orthogonalLoop=1;jettySize=auto;html=1;exitX=0.5;exitY=1;exitDx=0;exitDy=0;entryX=0.5;entryY=0;entryDx=0;entryDy=0;" edge="1" parent="1" source="2HjxuxM-zqZ1-7jaqbpz-4" target="2HjxuxM-zqZ1-7jaqbpz-5">
          <mxGeometry relative="1" as="geometry" />
        </mxCell>
        <mxCell id="2HjxuxM-zqZ1-7jaqbpz-23" style="edgeStyle=orthogonalEdgeStyle;rounded=0;orthogonalLoop=1;jettySize=auto;html=1;exitX=1;exitY=0.5;exitDx=0;exitDy=0;entryX=0;entryY=0.5;entryDx=0;entryDy=0;" edge="1" parent="1" source="2HjxuxM-zqZ1-7jaqbpz-4" target="2HjxuxM-zqZ1-7jaqbpz-13">
          <mxGeometry relative="1" as="geometry" />
        </mxCell>
        <mxCell id="2HjxuxM-zqZ1-7jaqbpz-4" value="&lt;i&gt;sendto()&lt;/i&gt;" style="rounded=0;whiteSpace=wrap;html=1;fillColor=#ffe6cc;strokeColor=#d79b00;" vertex="1" parent="1">
          <mxGeometry x="120" y="560" width="120" height="40" as="geometry" />
        </mxCell>
        <mxCell id="2HjxuxM-zqZ1-7jaqbpz-5" value="&lt;i&gt;close()&lt;/i&gt;" style="rounded=0;whiteSpace=wrap;html=1;fillColor=#ffe6cc;strokeColor=#d79b00;" vertex="1" parent="1">
          <mxGeometry x="120" y="640" width="120" height="40" as="geometry" />
        </mxCell>
        <mxCell id="2HjxuxM-zqZ1-7jaqbpz-14" style="edgeStyle=orthogonalEdgeStyle;rounded=0;orthogonalLoop=1;jettySize=auto;html=1;exitX=0.5;exitY=1;exitDx=0;exitDy=0;entryX=0.5;entryY=0;entryDx=0;entryDy=0;" edge="1" parent="1" source="2HjxuxM-zqZ1-7jaqbpz-10" target="2HjxuxM-zqZ1-7jaqbpz-11">
          <mxGeometry relative="1" as="geometry" />
        </mxCell>
        <mxCell id="2HjxuxM-zqZ1-7jaqbpz-10" value="&lt;i&gt;socket()&lt;/i&gt;" style="rounded=0;whiteSpace=wrap;html=1;fillColor=#d5e8d4;strokeColor=#82b366;" vertex="1" parent="1">
          <mxGeometry x="400" y="340" width="120" height="40" as="geometry" />
        </mxCell>
        <mxCell id="2HjxuxM-zqZ1-7jaqbpz-15" style="edgeStyle=orthogonalEdgeStyle;rounded=0;orthogonalLoop=1;jettySize=auto;html=1;exitX=0.5;exitY=1;exitDx=0;exitDy=0;entryX=0.5;entryY=0;entryDx=0;entryDy=0;" edge="1" parent="1" source="2HjxuxM-zqZ1-7jaqbpz-11" target="2HjxuxM-zqZ1-7jaqbpz-13">
          <mxGeometry relative="1" as="geometry" />
        </mxCell>
        <mxCell id="2HjxuxM-zqZ1-7jaqbpz-22" style="edgeStyle=orthogonalEdgeStyle;rounded=0;orthogonalLoop=1;jettySize=auto;html=1;exitX=0;exitY=0.5;exitDx=0;exitDy=0;" edge="1" parent="1" source="2HjxuxM-zqZ1-7jaqbpz-11" target="2HjxuxM-zqZ1-7jaqbpz-3">
          <mxGeometry relative="1" as="geometry" />
        </mxCell>
        <mxCell id="2HjxuxM-zqZ1-7jaqbpz-11" value="&lt;i&gt;sendto()&lt;/i&gt;" style="rounded=0;whiteSpace=wrap;html=1;fillColor=#d5e8d4;strokeColor=#82b366;" vertex="1" parent="1">
          <mxGeometry x="400" y="480" width="120" height="40" as="geometry" />
        </mxCell>
        <mxCell id="2HjxuxM-zqZ1-7jaqbpz-17" style="edgeStyle=orthogonalEdgeStyle;rounded=0;orthogonalLoop=1;jettySize=auto;html=1;exitX=0.5;exitY=1;exitDx=0;exitDy=0;entryX=0.5;entryY=0;entryDx=0;entryDy=0;" edge="1" parent="1" source="2HjxuxM-zqZ1-7jaqbpz-13" target="2HjxuxM-zqZ1-7jaqbpz-16">
          <mxGeometry relative="1" as="geometry" />
        </mxCell>
        <mxCell id="2HjxuxM-zqZ1-7jaqbpz-13" value="&lt;i&gt;recvfrom()&lt;/i&gt;" style="rounded=0;whiteSpace=wrap;html=1;fillColor=#d5e8d4;strokeColor=#82b366;" vertex="1" parent="1">
          <mxGeometry x="400" y="560" width="120" height="40" as="geometry" />
        </mxCell>
        <mxCell id="2HjxuxM-zqZ1-7jaqbpz-16" value="&lt;i&gt;close()&lt;/i&gt;" style="rounded=0;whiteSpace=wrap;html=1;fillColor=#d5e8d4;strokeColor=#82b366;" vertex="1" parent="1">
          <mxGeometry x="400" y="640" width="120" height="40" as="geometry" />
        </mxCell>
        <mxCell id="2HjxuxM-zqZ1-7jaqbpz-19" value="&lt;b&gt;Server&lt;/b&gt;" style="text;html=1;align=center;verticalAlign=middle;whiteSpace=wrap;rounded=0;" vertex="1" parent="1">
          <mxGeometry x="150" y="210" width="60" height="30" as="geometry" />
        </mxCell>
        <mxCell id="2HjxuxM-zqZ1-7jaqbpz-20" value="&lt;b&gt;Client&lt;/b&gt;" style="text;html=1;align=center;verticalAlign=middle;whiteSpace=wrap;rounded=0;" vertex="1" parent="1">
          <mxGeometry x="430" y="310" width="60" height="30" as="geometry" />
        </mxCell>
        <mxCell id="2HjxuxM-zqZ1-7jaqbpz-21" value="&lt;i&gt;(Possibly multiple) data transfers in either direction&lt;/i&gt;" style="text;html=1;align=center;verticalAlign=middle;whiteSpace=wrap;rounded=0;" vertex="1" parent="1">
          <mxGeometry x="235" y="440" width="170" height="30" as="geometry" />
        </mxCell>
      </root>
    </mxGraphModel>
  </diagram>
</mxfile>
